<svg width="1080" height="180" viewBox="0 0 1080 180" fill="none" xmlns="http://www.w3.org/2000/svg">
<path fill-rule="evenodd" clip-rule="evenodd" d="M288.562 0L196.486 180H110L148.534 105.4H146.805C115.015 146.668 67.583 173.835 0 180V106.433C0 106.433 43.2345 103.879 68.6508 77.1575H0V0.00141978H77.1561V63.4612L78.8878 63.4541L110.417 0.00141978H168.768V63.0588L170.499 63.056L203.211 0H288.562Z" fill="#F2F2F2"/>
<path d="M790.664 160.132H815.513V17.5H790.664V160.132Z" fill="#F2F2F2"/>
<path fill-rule="evenodd" clip-rule="evenodd" d="M653.676 158.674C659.076 160.919 664.568 162.042 670.151 162.042C679.374 162.042 687.627 159.797 694.909 155.306C702.19 150.816 707.834 144.627 711.839 136.738C715.844 128.789 717.846 119.777 717.846 109.704C717.846 99.6308 715.783 90.6199 711.657 82.6706C707.53 74.7214 701.796 68.5622 694.453 64.1931C687.111 59.7634 678.767 57.5789 669.422 57.6395C663.476 57.6395 657.772 58.7925 652.31 61.0984C646.849 63.4043 642.298 66.6811 638.657 70.9288C638.376 71.2522 638.103 71.5788 637.838 71.9087V17.5898H612.898V160.131H637.656L637.606 146.815C638.246 147.6 638.931 148.367 639.658 149.117C643.602 153.183 648.275 156.368 653.676 158.674ZM679.162 135.646C675.096 138.134 670.454 139.378 665.235 139.378C660.077 139.378 655.344 138.103 651.036 135.555C646.727 132.945 643.299 129.396 640.75 124.905C638.262 120.415 637.018 115.317 637.018 109.613C636.958 103.909 638.171 98.8118 640.659 94.3215C643.208 89.7704 646.636 86.2508 650.945 83.7629C655.253 81.2143 660.017 79.9703 665.235 80.031C670.454 79.9703 675.096 81.1839 679.162 83.6719C683.288 86.0991 686.443 89.5883 688.628 94.1394C690.873 98.6298 691.996 103.788 691.996 109.613C691.996 115.439 690.873 120.597 688.628 125.087C686.443 129.578 683.288 133.097 679.162 135.646Z" fill="#F2F2F2"/>
<path d="M324.562 26.1484H352.962L378.365 118.924L405.391 26.1484H429.057L458.365 117.062L482.76 26.1484H508.792L470.38 160.133H445.896L416.092 71.3172L388.733 160.133H363.975L324.562 26.1484Z" fill="#F2F2F2"/>
<path fill-rule="evenodd" clip-rule="evenodd" d="M550.726 162.497C540.834 162.558 531.914 160.373 523.965 155.944C516.076 151.453 509.857 145.233 505.305 137.284C500.815 129.335 498.57 120.263 498.57 110.068C498.57 100.177 500.876 91.2266 505.488 83.2167C510.099 75.2067 516.349 68.9565 524.238 64.4661C532.127 59.9757 540.925 57.7305 550.634 57.7305C561.557 57.7305 571.114 60.1577 579.306 65.0122C587.559 69.8667 593.718 76.7541 597.784 85.6742C601.91 94.5337 603.397 104.698 602.244 116.167H524.277C524.495 120.736 525.635 124.893 527.697 128.637C530.003 132.763 533.219 135.979 537.345 138.285C541.472 140.591 546.083 141.744 551.181 141.744C555.064 141.683 558.675 141.016 562.012 139.742C565.35 138.407 568.171 136.617 570.477 134.371C572.844 132.126 574.513 129.578 575.484 126.726H601.516C599.938 133.704 596.783 139.924 592.05 145.385C587.316 150.786 581.37 155.003 574.209 158.037C567.049 161.071 559.221 162.558 550.726 162.497ZM527.788 91.1356C526.334 93.6714 525.326 96.4017 524.765 99.3277H576.448C576.073 95.6317 574.932 92.2639 573.026 89.2241C570.841 85.6439 567.868 82.8829 564.106 80.9411C560.344 78.9386 556.096 77.9374 551.363 77.9374C546.326 77.9374 541.745 79.0903 537.618 81.3962C533.492 83.7021 530.215 86.9486 527.788 91.1356Z" fill="#F2F2F2"/>
<path d="M736.137 59.8256C736.137 51.6943 737.987 44.4732 741.689 38.1623C745.39 31.7908 750.579 26.8452 757.254 23.3257C763.989 19.7455 771.848 17.8947 780.828 17.7734V39.8917C776.641 39.9524 773.061 40.8323 770.088 42.5314C767.175 44.1698 764.93 46.5667 763.352 49.7221C761.9 52.6271 761.116 55.9949 761.001 59.8256H780.282V80.8517H760.986V160.132H736.137V80.8517H720.117V59.8256H736.137Z" fill="#F2F2F2"/>
<path fill-rule="evenodd" clip-rule="evenodd" d="M878.679 162.316C868.545 162.316 859.473 160.101 851.463 155.672C843.514 151.181 837.264 144.992 832.713 137.103C828.222 129.154 825.977 120.143 825.977 110.069C825.977 99.9359 828.222 90.8941 832.713 82.9448C837.264 74.9348 843.514 68.715 851.463 64.2853C859.473 59.8555 868.545 57.6406 878.679 57.6406C888.873 57.6406 897.976 59.8555 905.985 64.2853C914.056 68.715 920.337 74.9045 924.827 82.8538C929.317 90.803 931.593 99.8749 931.654 110.069C931.593 120.143 929.317 129.154 924.827 137.103C920.397 144.992 914.147 151.181 906.076 155.672C898.006 160.101 888.873 162.316 878.679 162.316ZM878.679 139.47C884.019 139.47 888.752 138.256 892.878 135.829C897.005 133.341 900.19 129.882 902.436 125.452C904.681 120.962 905.803 115.834 905.803 110.069C905.803 104.244 904.681 99.0859 902.436 94.5956C900.19 90.1052 897.005 86.6464 892.878 84.2191C888.752 81.7312 884.019 80.4872 878.679 80.4872C873.4 80.4872 868.697 81.7312 864.57 84.2191C860.505 86.6464 857.349 90.1052 855.104 94.5956C852.859 99.0859 851.767 104.244 851.827 110.069C851.827 115.834 852.95 120.962 855.195 125.452C857.501 129.882 860.656 133.341 864.661 135.829C868.727 138.256 873.4 139.47 878.679 139.47Z" fill="#F2F2F2"/>
<path d="M958.506 59.8242H930.836L960.782 160.131H984.994L1004.69 96.0649L1025.95 160.131H1049.8L1079.84 59.8242H1054.81L1037.77 122.259L1018.94 59.8242H994.733L975.995 123.634L958.506 59.8242Z" fill="#F2F2F2"/>
</svg>
